<svg width="390" height="338" viewBox="0 0 390 338" fill="none" xmlns="http://www.w3.org/2000/svg">
<g opacity="0.27">
<path d="M-109 104.5C-109 125.168 -102.607 145.372 -90.6302 162.557C-78.6531 179.742 -61.6296 193.136 -41.7125 201.045C-21.7953 208.955 0.120934 211.024 21.2649 206.992C42.4088 202.96 61.8307 193.007 77.0747 178.393C92.3186 163.778 102.7 145.158 106.906 124.887C111.111 104.616 108.953 83.6044 100.703 64.5095C92.4529 45.4147 78.4821 29.094 60.5571 17.6114C42.6321 6.1288 21.5581 -1.01018e-05 -5.34058e-05 0L-2.28882e-05 56.1503C9.97443 56.1503 19.7249 58.986 28.0183 64.2987C36.3118 69.6114 42.7758 77.1626 46.5928 85.9974C50.4099 94.8321 51.4086 104.554 49.4627 113.933C47.5168 123.311 42.7136 131.927 35.6606 138.688C28.6076 145.45 19.6215 150.055 9.83875 151.921C0.055954 153.786 -10.0842 152.829 -19.2994 149.169C-28.5146 145.51 -36.3909 139.313 -41.9324 131.362C-47.474 123.411 -50.4317 114.063 -50.4317 104.5H-109Z" fill="#32ADE6" fill-opacity="0.31"/>
<ellipse cx="18" cy="16.5" rx="18" ry="16.5" transform="matrix(-1 0 0 1 100 31)" fill="#32ADE6"/>
<ellipse cx="65" cy="57.5" rx="65" ry="57.5" transform="matrix(-1 0 0 1 391 48)" fill="#32ADE6" fill-opacity="0.53"/>
<path d="M268 203.5C268 258.452 317.696 303 379 303C440.304 303 490 258.452 490 203.5C490 148.548 440.304 104 379 104C317.696 104 268 148.548 268 203.5ZM414.132 203.5C414.132 220.893 398.403 234.992 379 234.992C359.597 234.992 343.868 220.893 343.868 203.5C343.868 186.107 359.597 172.008 379 172.008C398.403 172.008 414.132 186.107 414.132 203.5Z" fill="#D9D9D9"/>
</g>
</svg>
