<svg width="775" height="215" viewBox="0 0 775 215" fill="none" xmlns="http://www.w3.org/2000/svg">
<path d="M450.066 75L755.625 74.5" stroke="#BCBCBC" stroke-width="3" stroke-linecap="round"/>
<g filter="url(#filter0_d_240_35)">
<path d="M44 35C50.5 35.75 59.75 36.25 65 36.25H202.25C210 36.25 217.75 35.75 223.75 35V56.75C217.5 56.25 209.5 55.75 202.25 55.75H65C60 55.75 50.25 56.25 44 56.75V35ZM121.25 181.75V47.5H142.5V181.75H121.25ZM28.75 169.5C36 170.5 43.75 171 50.75 171H216C223.5 171 230.25 170 236.5 169.5V192C230 191.25 220.75 191.25 216 191.25H50.75C44 191.25 36.25 191.5 28.75 192V169.5ZM443 45.75C441 49.25 438.5 55 437.25 59C430.5 84.25 415.25 118 393 145.25C370.25 173 340.25 195.75 293.5 213.25L275.25 196.75C321.25 183.25 352.25 160.75 375.25 134C394.5 111.25 410 78.75 415 56H322.5L330.5 38C340.5 38 402.25 38 410 38C416.75 38 422.5 37.25 426.5 35.75L443 45.75ZM359.25 7.99999C355.25 14.5 350.75 23 348.25 27.5C333.5 55.25 307.5 91 267.25 117.5L249.75 104.75C293 79 317.5 42.5 328.5 20.25C331 15.75 334.75 6.75 336.25 0.24999L359.25 7.99999Z" fill="#189AD7"/>
</g>
<g filter="url(#filter1_d_240_35)">
<path d="M465.471 30.824H487.743V37.672H465.471V30.824ZM466.111 50.024H491.391V57H457.791V12.2H490.495V19.176H466.111V50.024ZM525.242 57.64C521.829 57.64 518.65 57.0853 515.706 55.976C512.805 54.824 510.266 53.224 508.09 51.176C505.957 49.0853 504.293 46.632 503.098 43.816C501.903 41 501.306 37.928 501.306 34.6C501.306 31.272 501.903 28.2 503.098 25.384C504.293 22.568 505.978 20.136 508.154 18.088C510.33 15.9973 512.869 14.3973 515.77 13.288C518.671 12.136 521.85 11.56 525.306 11.56C528.975 11.56 532.325 12.2 535.354 13.48C538.383 14.7173 540.943 16.5733 543.034 19.048L537.658 24.104C536.037 22.3547 534.223 21.0533 532.218 20.2C530.213 19.304 528.037 18.856 525.69 18.856C523.343 18.856 521.189 19.24 519.226 20.008C517.306 20.776 515.621 21.864 514.17 23.272C512.762 24.68 511.653 26.344 510.842 28.264C510.074 30.184 509.69 32.296 509.69 34.6C509.69 36.904 510.074 39.016 510.842 40.936C511.653 42.856 512.762 44.52 514.17 45.928C515.621 47.336 517.306 48.424 519.226 49.192C521.189 49.96 523.343 50.344 525.69 50.344C528.037 50.344 530.213 49.9173 532.218 49.064C534.223 48.168 536.037 46.824 537.658 45.032L543.034 50.152C540.943 52.584 538.383 54.44 535.354 55.72C532.325 57 528.954 57.64 525.242 57.64ZM574.644 57.64C571.231 57.64 568.052 57.0853 565.108 55.976C562.207 54.824 559.668 53.224 557.492 51.176C555.359 49.0853 553.695 46.632 552.5 43.816C551.306 41 550.708 37.928 550.708 34.6C550.708 31.272 551.306 28.2 552.5 25.384C553.695 22.568 555.38 20.136 557.556 18.088C559.732 15.9973 562.271 14.3973 565.172 13.288C568.074 12.136 571.252 11.56 574.708 11.56C578.378 11.56 581.727 12.2 584.756 13.48C587.786 14.7173 590.346 16.5733 592.436 19.048L587.06 24.104C585.439 22.3547 583.626 21.0533 581.62 20.2C579.615 19.304 577.439 18.856 575.092 18.856C572.746 18.856 570.591 19.24 568.628 20.008C566.708 20.776 565.023 21.864 563.572 23.272C562.164 24.68 561.055 26.344 560.244 28.264C559.476 30.184 559.092 32.296 559.092 34.6C559.092 36.904 559.476 39.016 560.244 40.936C561.055 42.856 562.164 44.52 563.572 45.928C565.023 47.336 566.708 48.424 568.628 49.192C570.591 49.96 572.746 50.344 575.092 50.344C577.439 50.344 579.615 49.9173 581.62 49.064C583.626 48.168 585.439 46.824 587.06 45.032L592.436 50.152C590.346 52.584 587.786 54.44 584.756 55.72C581.727 57 578.356 57.64 574.644 57.64ZM604.248 57V12.2H611.096L630.681 44.904H627.097L646.361 12.2H653.208L653.272 57H645.401L645.337 24.552H647L630.617 51.88H626.904L610.264 24.552H612.184V57H604.248ZM683.549 57.384C680.136 57.384 677.107 56.6373 674.461 55.144C671.816 53.6507 669.725 51.6027 668.189 49C666.653 46.3547 665.885 43.368 665.885 40.04C665.885 36.6693 666.653 33.6827 668.189 31.08C669.725 28.4773 671.816 26.4507 674.461 25C677.107 23.5067 680.136 22.76 683.549 22.76C686.92 22.76 689.928 23.5067 692.573 25C695.261 26.4507 697.352 28.4773 698.845 31.08C700.381 33.64 701.149 36.6267 701.149 40.04C701.149 43.4107 700.381 46.3973 698.845 49C697.352 51.6027 695.261 53.6507 692.573 55.144C689.928 56.6373 686.92 57.384 683.549 57.384ZM683.549 52.008C685.725 52.008 687.667 51.5173 689.373 50.536C691.123 49.5547 692.488 48.168 693.469 46.376C694.451 44.5413 694.941 42.4293 694.941 40.04C694.941 37.608 694.451 35.5173 693.469 33.768C692.488 31.976 691.123 30.5893 689.373 29.608C687.667 28.6267 685.725 28.136 683.549 28.136C681.373 28.136 679.432 28.6267 677.725 29.608C676.019 30.5893 674.653 31.976 673.629 33.768C672.605 35.5173 672.093 37.608 672.093 40.04C672.093 42.4293 672.605 44.5413 673.629 46.376C674.653 48.168 676.019 49.5547 677.725 50.536C679.432 51.5173 681.373 52.008 683.549 52.008ZM731.598 22.76C734.372 22.76 736.804 23.2933 738.894 24.36C741.028 25.4267 742.692 27.048 743.886 29.224C745.081 31.4 745.678 34.152 745.678 37.48V57H739.534V38.184C739.534 34.8987 738.724 32.424 737.102 30.76C735.524 29.096 733.284 28.264 730.382 28.264C728.206 28.264 726.308 28.6907 724.686 29.544C723.065 30.3973 721.806 31.656 720.91 33.32C720.057 34.984 719.63 37.0533 719.63 39.528V57H713.486V23.08H719.374V32.232L718.414 29.8C719.524 27.5813 721.23 25.8533 723.534 24.616C725.838 23.3787 728.526 22.76 731.598 22.76Z" fill="#ABABAB"/>
</g>
<g filter="url(#filter2_d_240_35)">
<path d="M473.65 95.65C477.55 95.95 482.05 96.1 487.15 96.1C497.8 96.1 547.45 96.1 558.4 96.1C563.35 96.1 567.4 95.95 570.7 95.65V107.5C567.1 107.35 563.65 107.2 558.4 107.2C547.45 107.2 494.95 107.2 487.15 107.2C482.05 107.2 477.55 107.35 473.65 107.5V95.65ZM519.55 143.8C519.55 154.9 519.55 175 519.55 180.25C519.55 187.75 524.65 192.4 538.6 192.4C552.7 192.4 565 191.8 577.9 190.3L577.15 202.9C565.6 203.65 551.05 204.25 536.8 204.25C514.15 204.25 506.95 196.3 506.95 184.15C506.95 173.2 506.95 155.2 506.95 143.35C506.95 137.2 506.95 109.9 506.95 103.75H519.55C519.55 109.75 519.55 139.6 519.55 143.8ZM463.75 138.1C467.8 138.55 473.8 138.85 477.85 138.85C488.65 138.85 560.65 138.85 569.95 138.85C573.1 138.85 579.1 138.55 582.55 138.25V150.55C579.1 150.25 573.55 150.25 570.25 150.25C560.5 150.25 488.65 150.25 477.85 150.25C473.95 150.25 467.8 150.4 463.75 150.7V138.1ZM630.55 92.2C641.05 99.25 660.4 114.85 668.65 123.1L659.35 132.7C651.7 124.9 633.1 108.7 621.85 101.35L630.55 92.2ZM617.65 192.7C643.75 188.8 663.25 179.65 677.5 170.8C700.75 156.25 718.9 134.05 727.6 115.45L734.8 128.35C724.6 146.95 707.2 167.35 684.55 181.6C669.4 191.05 650.5 200.35 625.45 205L617.65 192.7Z" fill="#65CEFF"/>
</g>
<defs>
<filter id="filter0_d_240_35" x="28.25" y="0.25" width="415.25" height="214.5" filterUnits="userSpaceOnUse" color-interpolation-filters="sRGB">
<feFlood flood-opacity="0" result="BackgroundImageFix"/>
<feColorMatrix in="SourceAlpha" type="matrix" values="0 0 0 0 0 0 0 0 0 0 0 0 0 0 0 0 0 0 127 0" result="hardAlpha"/>
<feOffset dy="1"/>
<feGaussianBlur stdDeviation="0.25"/>
<feComposite in2="hardAlpha" operator="out"/>
<feColorMatrix type="matrix" values="0 0 0 0 0.363802 0 0 0 0 0.584996 0 0 0 0 0.6875 0 0 0 1 0"/>
<feBlend mode="normal" in2="BackgroundImageFix" result="effect1_dropShadow_240_35"/>
<feBlend mode="normal" in="SourceGraphic" in2="effect1_dropShadow_240_35" result="shape"/>
</filter>
<filter id="filter1_d_240_35" x="457.289" y="11.5586" width="288.891" height="47.582" filterUnits="userSpaceOnUse" color-interpolation-filters="sRGB">
<feFlood flood-opacity="0" result="BackgroundImageFix"/>
<feColorMatrix in="SourceAlpha" type="matrix" values="0 0 0 0 0 0 0 0 0 0 0 0 0 0 0 0 0 0 127 0" result="hardAlpha"/>
<feOffset dy="1"/>
<feGaussianBlur stdDeviation="0.25"/>
<feComposite in2="hardAlpha" operator="out"/>
<feColorMatrix type="matrix" values="0 0 0 0 0 0 0 0 0 0 0 0 0 0 0 0 0 0 0.25 0"/>
<feBlend mode="normal" in2="BackgroundImageFix" result="effect1_dropShadow_240_35"/>
<feBlend mode="normal" in="SourceGraphic" in2="effect1_dropShadow_240_35" result="shape"/>
</filter>
<filter id="filter2_d_240_35" x="462.75" y="92.1992" width="272.051" height="113.801" filterUnits="userSpaceOnUse" color-interpolation-filters="sRGB">
<feFlood flood-opacity="0" result="BackgroundImageFix"/>
<feColorMatrix in="SourceAlpha" type="matrix" values="0 0 0 0 0 0 0 0 0 0 0 0 0 0 0 0 0 0 127 0" result="hardAlpha"/>
<feOffset dx="-1" dy="1"/>
<feComposite in2="hardAlpha" operator="out"/>
<feColorMatrix type="matrix" values="0 0 0 0 0.321389 0 0 0 0 0.634537 0 0 0 0 0.741667 0 0 0 1 0"/>
<feBlend mode="normal" in2="BackgroundImageFix" result="effect1_dropShadow_240_35"/>
<feBlend mode="normal" in="SourceGraphic" in2="effect1_dropShadow_240_35" result="shape"/>
</filter>
</defs>
</svg>
