<svg width="390" height="263" viewBox="0 0 390 263" fill="none" xmlns="http://www.w3.org/2000/svg">
<ellipse cx="250" cy="235" rx="110" ry="103" fill="#00BFFF"/>
<path d="M499 104.5C499 125.168 492.607 145.372 480.63 162.557C468.653 179.742 451.63 193.136 431.712 201.045C411.795 208.955 389.879 211.024 368.735 206.992C347.591 202.96 328.169 193.007 312.925 178.393C297.681 163.778 287.3 145.158 283.094 124.887C278.889 104.616 281.047 83.6044 289.297 64.5095C297.547 45.4147 311.518 29.094 329.443 17.6114C347.368 6.1288 368.442 -1.01018e-05 390 0L390 56.1503C380.026 56.1503 370.275 58.986 361.982 64.2987C353.688 69.6114 347.224 77.1626 343.407 85.9974C339.59 94.8321 338.591 104.554 340.537 113.933C342.483 123.311 347.286 131.927 354.339 138.688C361.392 145.45 370.378 150.055 380.161 151.921C389.944 153.786 400.084 152.829 409.299 149.169C418.515 145.51 426.391 139.313 431.932 131.362C437.474 123.411 440.432 114.063 440.432 104.5H499Z" fill="#00BFFF" fill-opacity="0.31"/>
<ellipse cx="308" cy="47.5" rx="18" ry="16.5" fill="#00BFFF"/>
<ellipse cx="64" cy="105.5" rx="65" ry="57.5" fill="#00BFFF" fill-opacity="0.53"/>
<path d="M122 203.5C122 258.452 72.3036 303 11 303C-50.3036 303 -100 258.452 -100 203.5C-100 148.548 -50.3036 104 11 104C72.3036 104 122 148.548 122 203.5ZM-24.1323 203.5C-24.1323 220.893 -8.40305 234.992 11 234.992C30.403 234.992 46.1323 220.893 46.1323 203.5C46.1323 186.107 30.403 172.008 11 172.008C-8.40305 172.008 -24.1323 186.107 -24.1323 203.5Z" fill="#C6C6C6" fill-opacity="0.75"/>
</svg>
