<svg width="1316" height="217" viewBox="0 0 1316 217" fill="none" xmlns="http://www.w3.org/2000/svg">
<g filter="url(#filter0_d_217_24)">
<path d="M979.557 212.2C968.89 212.2 959.424 209.867 951.157 205.2C942.89 200.533 936.357 194.133 931.557 186C926.757 177.733 924.357 168.4 924.357 158C924.357 147.467 926.757 138.133 931.557 130C936.357 121.867 942.89 115.533 951.157 111C959.424 106.333 968.89 104 979.557 104C990.09 104 999.49 106.333 1007.76 111C1016.16 115.533 1022.69 121.867 1027.36 130C1032.16 138 1034.56 147.333 1034.56 158C1034.56 168.533 1032.16 177.867 1027.36 186C1022.69 194.133 1016.16 200.533 1007.76 205.2C999.49 209.867 990.09 212.2 979.557 212.2ZM979.557 195.4C986.357 195.4 992.424 193.867 997.757 190.8C1003.22 187.733 1007.49 183.4 1010.56 177.8C1013.62 172.067 1015.16 165.467 1015.16 158C1015.16 150.4 1013.62 143.867 1010.56 138.4C1007.49 132.8 1003.22 128.467 997.757 125.4C992.424 122.333 986.357 120.8 979.557 120.8C972.757 120.8 966.69 122.333 961.357 125.4C956.024 128.467 951.757 132.8 948.557 138.4C945.357 143.867 943.757 150.4 943.757 158C943.757 165.467 945.357 172.067 948.557 177.8C951.757 183.4 956.024 187.733 961.357 190.8C966.69 193.867 972.757 195.4 979.557 195.4ZM1117.71 104C1126.38 104 1133.98 105.667 1140.51 109C1147.18 112.333 1152.38 117.4 1156.11 124.2C1159.84 131 1161.71 139.6 1161.71 150V211H1142.51V152.2C1142.51 141.933 1139.98 134.2 1134.91 129C1129.98 123.8 1122.98 121.2 1113.91 121.2C1107.11 121.2 1101.18 122.533 1096.11 125.2C1091.04 127.867 1087.11 131.8 1084.31 137C1081.64 142.2 1080.31 148.667 1080.31 156.4V211H1061.11V105H1079.51V133.6L1076.51 126C1079.98 119.067 1085.31 113.667 1092.51 109.8C1099.71 105.933 1108.11 104 1117.71 104Z" fill="#65CEFF"/>
</g>
<g filter="url(#filter1_d_217_24)">
<path d="M59.0969 93.6H167.097V119.1H59.0969V93.6ZM61.7969 186.9H184.197V213H31.7969V2.99999H179.997V29.1H61.7969V186.9ZM326.38 215.4C310.38 215.4 295.58 212.8 281.98 207.6C268.58 202.2 256.88 194.7 246.88 185.1C237.08 175.3 229.38 163.9 223.78 150.9C218.18 137.9 215.38 123.6 215.38 108C215.38 92.4 218.18 78.1 223.78 65.1C229.38 52.1 237.18 40.8 247.18 31.2C257.18 21.4 268.88 13.9 282.28 8.69998C295.88 3.29999 310.68 0.599999 326.68 0.599999C342.88 0.599999 357.78 3.4 371.38 9C385.18 14.4 396.88 22.5 406.48 33.3L386.98 52.2C378.98 43.8 369.98 37.6 359.98 33.6C349.98 29.4 339.28 27.3 327.88 27.3C316.08 27.3 305.08 29.3 294.88 33.3C284.88 37.3 276.18 42.9 268.78 50.1C261.38 57.3 255.58 65.9 251.38 75.9C247.38 85.7 245.38 96.4 245.38 108C245.38 119.6 247.38 130.4 251.38 140.4C255.58 150.2 261.38 158.7 268.78 165.9C276.18 173.1 284.88 178.7 294.88 182.7C305.08 186.7 316.08 188.7 327.88 188.7C339.28 188.7 349.98 186.7 359.98 182.7C369.98 178.5 378.98 172.1 386.98 163.5L406.48 182.4C396.88 193.2 385.18 201.4 371.38 207C357.78 212.6 342.78 215.4 326.38 215.4ZM538.783 215.4C522.783 215.4 507.983 212.8 494.383 207.6C480.983 202.2 469.283 194.7 459.283 185.1C449.483 175.3 441.783 163.9 436.183 150.9C430.583 137.9 427.783 123.6 427.783 108C427.783 92.4 430.583 78.1 436.183 65.1C441.783 52.1 449.583 40.8 459.583 31.2C469.583 21.4 481.283 13.9 494.683 8.69998C508.283 3.29999 523.083 0.599999 539.083 0.599999C555.283 0.599999 570.183 3.4 583.783 9C597.583 14.4 609.283 22.5 618.883 33.3L599.383 52.2C591.383 43.8 582.383 37.6 572.383 33.6C562.383 29.4 551.683 27.3 540.283 27.3C528.483 27.3 517.483 29.3 507.283 33.3C497.283 37.3 488.583 42.9 481.183 50.1C473.783 57.3 467.983 65.9 463.783 75.9C459.783 85.7 457.783 96.4 457.783 108C457.783 119.6 459.783 130.4 463.783 140.4C467.983 150.2 473.783 158.7 481.183 165.9C488.583 173.1 497.283 178.7 507.283 182.7C517.483 186.7 528.483 188.7 540.283 188.7C551.683 188.7 562.383 186.7 572.383 182.7C582.383 178.5 591.383 172.1 599.383 163.5L618.883 182.4C609.283 193.2 597.583 201.4 583.783 207C570.183 212.6 555.183 215.4 538.783 215.4Z" fill="#189AD7"/>
<path d="M661.68 213V2.99999H686.28L780.48 161.7H767.28L860.28 2.99999H884.88L885.18 213H856.38L856.08 48.3H862.98L780.18 187.5H766.38L682.98 48.3H690.48V213H661.68Z" fill="#65CEFF"/>
</g>
<path d="M941.15 12.14C942.97 12.42 945.91 12.63 947.8 12.63H985.95C988.05 12.63 990.5 12.42 992.46 12.14V21.8C990.43 21.59 987.98 21.45 985.95 21.45H947.8C945.91 21.45 942.97 21.59 941.15 21.8V12.14ZM961.38 55.26V17.53H971.11V55.26H961.38ZM936.67 49.52C938.91 49.87 941.43 50.08 943.53 50.08H989.73C992.18 50.08 994.42 49.73 996.24 49.52V59.6C994.28 59.39 991.34 59.32 989.73 59.32H943.53C941.5 59.32 938.98 59.39 936.67 59.6V49.52ZM1070.72 17.53C1069.95 18.86 1068.97 20.75 1068.41 22.5C1066.52 28.8 1062.53 38.11 1056.16 45.88C1049.51 54 1041.11 60.44 1027.95 65.62L1019.69 58.27C1033.97 53.93 1041.74 47.84 1047.9 40.91C1052.66 35.45 1056.72 27.05 1057.84 21.87H1034.25L1037.47 13.89C1040.55 13.89 1055.25 13.89 1057.42 13.89C1059.59 13.89 1061.97 13.61 1063.51 13.05L1070.72 17.53ZM1047.9 6.4C1046.22 8.85 1044.4 12.07 1043.63 13.54C1038.87 22.01 1030.54 31.88 1020.46 38.74L1012.62 32.93C1024.87 25.44 1031.03 16.41 1034.46 10.39C1035.51 8.71 1036.98 5.49 1037.61 3.04L1047.9 6.4Z" fill="#A0A0A0"/>
<path d="M1090.59 33.108C1091.69 33.184 1092.91 33.26 1094.27 33.26C1097.54 33.26 1109.21 33.26 1112.59 33.26C1113.84 33.26 1115.1 33.184 1115.97 33.108V37.82C1114.98 37.782 1113.96 37.744 1112.59 37.744C1109.21 37.744 1096.14 37.744 1094.27 37.744C1092.91 37.744 1091.69 37.782 1090.59 37.82V33.108ZM1103.66 46.484C1103.66 48.232 1103.66 53.286 1103.66 54.616C1103.66 56.668 1104.91 57.428 1107.99 57.428C1111.37 57.428 1114.72 57.238 1117.8 56.896L1117.45 62.064C1114.98 62.216 1110.65 62.33 1107.12 62.33C1100.16 62.33 1098.45 59.974 1098.45 56.136C1098.45 53.628 1098.45 48.536 1098.45 46.294C1098.45 44.85 1098.45 37.858 1098.45 36.604H1103.66C1103.66 37.782 1103.66 46.104 1103.66 46.484ZM1088.08 43.976C1089.14 44.052 1091.08 44.204 1092.22 44.204C1095.72 44.204 1112.59 44.204 1115.1 44.204C1115.9 44.204 1117.83 44.09 1118.82 44.014V48.916C1117.8 48.764 1116.09 48.802 1115.25 48.802C1112.51 48.802 1095.68 48.802 1092.22 48.802C1091.16 48.802 1089.22 48.878 1088.08 48.954V43.976ZM1134.67 32.12C1137.29 33.906 1142.23 37.858 1144.47 40.176L1140.6 44.128C1138.62 42 1133.83 37.858 1131.06 35.958L1134.67 32.12ZM1129.88 57.428C1135.85 56.592 1140.75 54.654 1144.43 52.488C1150.93 48.612 1155.87 42.836 1158.3 37.706L1161.23 43.026C1158.38 48.194 1153.33 53.438 1147.21 57.124C1143.33 59.442 1138.43 61.532 1133.11 62.444L1129.88 57.428Z" fill="#B1B1B1"/>
<path d="M923 77L1169 77" stroke="#EEEEEE" stroke-width="2" stroke-linecap="round"/>
<defs>
<filter id="filter0_d_217_24" x="923.357" y="104" width="238.353" height="111.2" filterUnits="userSpaceOnUse" color-interpolation-filters="sRGB">
<feFlood flood-opacity="0" result="BackgroundImageFix"/>
<feColorMatrix in="SourceAlpha" type="matrix" values="0 0 0 0 0 0 0 0 0 0 0 0 0 0 0 0 0 0 127 0" result="hardAlpha"/>
<feOffset dx="-1" dy="3"/>
<feComposite in2="hardAlpha" operator="out"/>
<feColorMatrix type="matrix" values="0 0 0 0 0.367795 0 0 0 0 0.786072 0 0 0 0 0.929167 0 0 0 1 0"/>
<feBlend mode="normal" in2="BackgroundImageFix" result="effect1_dropShadow_217_24"/>
<feBlend mode="normal" in="SourceGraphic" in2="effect1_dropShadow_217_24" result="shape"/>
</filter>
<filter id="filter1_d_217_24" x="31.7969" y="0.599609" width="853.383" height="215.801" filterUnits="userSpaceOnUse" color-interpolation-filters="sRGB">
<feFlood flood-opacity="0" result="BackgroundImageFix"/>
<feColorMatrix in="SourceAlpha" type="matrix" values="0 0 0 0 0 0 0 0 0 0 0 0 0 0 0 0 0 0 127 0" result="hardAlpha"/>
<feOffset dy="1"/>
<feComposite in2="hardAlpha" operator="out"/>
<feColorMatrix type="matrix" values="0 0 0 0 0.363802 0 0 0 0 0.584996 0 0 0 0 0.6875 0 0 0 1 0"/>
<feBlend mode="normal" in2="BackgroundImageFix" result="effect1_dropShadow_217_24"/>
<feBlend mode="normal" in="SourceGraphic" in2="effect1_dropShadow_217_24" result="shape"/>
</filter>
</defs>
</svg>
